<?xml version="1.0" encoding="utf-8"?>
<svg viewBox="-180.316 -63.899 719.706 586.658" xmlns="http://www.w3.org/2000/svg">
  <defs>
    <clipPath id="clip0_36_3">
      <rect width="672" height="552" fill="white"/>
    </clipPath>
  </defs>
  <g clip-path="url(#clip0_36_3)" transform="matrix(1, 0, 0, 1, -171.553528, -47.899261)">
    <path d="M191.497 349.345C190.468 348.955 189.537 348.343 188.768 347.551C188 346.758 187.412 345.805 187.047 344.759C186.682 343.712 186.549 342.597 186.656 341.493C186.764 340.388 187.109 339.321 187.669 338.366L170.437 317.767L184.206 316.103L198.459 335.919C199.983 336.975 201.072 338.561 201.517 340.374C201.963 342.187 201.735 344.103 200.877 345.758C200.018 347.413 198.589 348.692 196.861 349.353C195.132 350.014 193.223 350.011 191.497 349.345Z" fill="#FFB6B6"/>
    <path d="M120.551 542.406L129.706 542.405L134.062 506.706L120.549 506.707L120.551 542.406Z" fill="#FFB6B6"/>
    <path d="M118.215 539.384L120.792 539.384L130.853 535.247L136.245 539.383H136.246C139.293 539.383 142.216 540.607 144.371 542.785C146.526 544.964 147.736 547.918 147.736 550.999V551.376L118.216 551.377L118.215 539.384Z" fill="#FEFEFE"/>
    <path d="M156.029 536.573L164.96 538.612L176.987 504.759L163.806 501.75L156.029 536.573Z" fill="#FFB6B6"/>
    <path d="M154.41 533.106L156.923 533.679L167.639 531.885L171.997 537.12L171.998 537.12C174.97 537.799 177.554 539.643 179.182 542.248C180.809 544.853 181.346 548.004 180.675 551.009L180.593 551.377L151.797 544.805L154.41 533.106Z" fill="#FEFEFE"/>
    <path d="M103.79 358.775L112.069 452.544C112.069 452.544 108.967 508.839 118.976 528.649H133.493L140.681 447.403L141.583 392.87L172.706 438.878L152.883 527.321L170.75 528.935L202.917 432.954L167.577 342.85L103.79 358.775Z" fill="#2F2E41"/>
    <path d="M112.46 209.448C124.252 209.448 133.811 199.785 133.811 187.864C133.811 175.943 124.252 166.28 112.46 166.28C100.669 166.28 91.1094 175.943 91.1094 187.864C91.1094 199.785 100.669 209.448 112.46 209.448Z" fill="#FFB8B8"/>
    <path d="M157.283 230.017L132.478 222.419L129.25 212.384L102.649 216.749L96.9974 226.545L78.7017 243.743L89.4195 292.733L100.137 341.723L99.4883 363.123C99.4883 363.123 113.208 369.367 172.706 354.991C173.419 354.819 171.926 354.064 171.926 354.064L157.283 230.017Z" fill="#322E68"/>
    <path d="M180.839 338.021L151.762 298.659L143.519 228.899L143.76 228.782C146.011 227.686 148.496 227.173 150.992 227.29C153.488 227.406 155.917 228.148 158.058 229.449C160.2 230.75 161.989 232.569 163.263 234.741C164.537 236.914 165.256 239.374 165.356 241.897L167.07 285.005L195.949 323.53L180.839 338.021Z" fill="#322E68"/>
    <path d="M90.2586 200.111C90.1099 199.906 89.9626 199.699 89.8167 199.49C89.758 199.616 89.7113 199.745 89.6442 199.868L90.2586 200.111Z" fill="#2F2E41"/>
    <path d="M133.699 172.076C132.272 168.933 129.727 166.448 126.571 165.115C123.442 163.839 119.946 163.842 116.819 165.123C113.997 163.32 110.86 161.891 107.557 161.714C104.255 161.537 100.762 162.776 98.727 165.503C98.2725 166.222 97.7562 166.9 97.1842 167.529C95.5481 169.06 93.0616 168.839 90.8869 168.526C91.8623 169.371 92.838 170.216 93.8139 171.062C92.6332 171.373 91.4523 171.685 90.2714 171.997C91.6494 172.842 93.0272 173.687 94.4049 174.532C90.4049 176.959 88.5868 182.256 89.067 187.068C89.5213 191.623 91.6968 195.788 94.2974 199.49C95.3348 197.277 95.1112 194.629 95.0941 192.137C95.0762 189.503 95.5371 186.512 97.6247 185.04C99.0329 184.048 100.844 184.003 102.542 184.013C111.108 184.06 119.664 184.6 128.169 185.63C129.323 185.68 130.448 186.01 131.45 186.592C133.33 187.889 133.697 190.566 133.886 192.914C134.879 189.037 135.366 185.044 135.332 181.039C135.416 177.968 134.859 174.915 133.699 172.076Z" fill="#BE6411"/>
    <path d="M131.6 434.086C150.159 434.086 165.205 418.877 165.205 400.115C165.205 381.352 150.159 366.143 131.6 366.143C113.04 366.143 97.9948 381.352 97.9948 400.115C97.9948 418.877 113.04 434.086 131.6 434.086Z" fill="#F0F0F0"/>
    <path d="M131.6 365.388C129.872 365.388 128.147 365.519 126.439 365.78C125.566 365.909 124.715 366.075 123.871 366.278C117.671 367.723 111.99 370.881 107.463 375.399C102.935 379.917 99.7379 385.618 98.2284 391.866C96.7189 398.114 96.9564 404.663 98.9142 410.782C100.872 416.902 104.473 422.351 109.316 426.522C109.891 427.013 110.473 427.488 111.078 427.941C115.438 431.227 120.507 433.42 125.869 434.338C131.231 435.257 136.732 434.875 141.919 433.225C147.106 431.574 151.831 428.702 155.706 424.844C159.581 420.987 162.494 416.254 164.206 411.036C165.917 405.818 166.379 400.264 165.553 394.83C164.726 389.396 162.635 384.239 159.451 379.782C156.268 375.325 152.083 371.696 147.241 369.193C142.399 366.691 137.038 365.386 131.6 365.388H131.6ZM131.6 433.332C124.613 433.339 117.808 431.082 112.184 426.892C111.571 426.439 110.981 425.971 110.406 425.473C105.688 421.449 102.187 416.163 100.305 410.219C98.4231 404.276 98.2361 397.917 99.7657 391.872C101.295 385.826 104.479 380.339 108.953 376.039C113.427 371.739 119.008 368.801 125.058 367.562C125.894 367.388 126.731 367.252 127.582 367.147C128.915 366.98 130.257 366.897 131.6 366.897C140.314 366.897 148.672 370.397 154.834 376.626C160.996 382.856 164.458 391.305 164.458 400.115C164.458 408.924 160.996 417.373 154.834 423.603C148.672 429.832 140.314 433.332 131.6 433.332Z" fill="#3F3D56"/>
    <path d="M115.171 393.32H148.029C149.266 393.32 150.269 392.306 150.269 391.055C150.269 389.805 149.266 388.791 148.029 388.791H115.171C113.933 388.791 112.93 389.805 112.93 391.055C112.93 392.306 113.933 393.32 115.171 393.32Z" fill="#6C63FF"/>
    <path d="M115.171 402.379H148.029C149.266 402.379 150.269 401.365 150.269 400.115C150.269 398.864 149.266 397.85 148.029 397.85H115.171C113.933 397.85 112.93 398.864 112.93 400.115C112.93 401.365 113.933 402.379 115.171 402.379Z" fill="#6C63FF"/>
    <path d="M115.171 411.439H148.029C149.266 411.439 150.269 410.425 150.269 409.174C150.269 407.923 149.266 406.909 148.029 406.909H115.171C113.933 406.909 112.93 407.923 112.93 409.174C112.93 410.425 113.933 411.439 115.171 411.439Z" fill="#6C63FF"/>
    <path d="M133.75 375.786C132.665 375.617 131.63 375.209 130.718 374.591C129.806 373.974 129.039 373.162 128.47 372.212C127.902 371.263 127.547 370.199 127.43 369.095C127.312 367.992 127.436 366.876 127.791 365.826L106.77 349.206L119.915 344.742L137.862 361.208C139.567 361.929 140.952 363.257 141.754 364.94C142.555 366.624 142.718 368.546 142.211 370.343C141.704 372.14 140.563 373.687 139.004 374.69C137.444 375.693 135.575 376.083 133.75 375.786H133.75Z" fill="#FFB6B6"/>
    <path d="M91.6472 243.466L78.7017 243.743C76.1622 246.108 74.1414 248.985 72.7696 252.188C71.3977 255.391 70.7055 258.849 70.7374 262.339V324.175L119.314 365.232L135.021 349.855L98.8655 310.033L91.6472 243.466Z" fill="#322E68"/>
    <path d="M672 96.3088H191.178V407.611H672V96.3088Z" fill="#E6E6E6"/>
    <path d="M658.251 135.354H204.927V389.195H658.251V135.354Z" fill="white"/>
    <path d="M671.795 96.0333H190.973V116.683H671.795V96.0333Z" fill="#A9927D"/>
    <path d="M206.153 110.418C208.244 110.418 209.939 108.705 209.939 106.591C209.939 104.477 208.244 102.763 206.153 102.763C204.062 102.763 202.367 104.477 202.367 106.591C202.367 108.705 204.062 110.418 206.153 110.418Z" fill="white"/>
    <path d="M220.524 110.418C222.615 110.418 224.31 108.705 224.31 106.591C224.31 104.477 222.615 102.763 220.524 102.763C218.433 102.763 216.738 104.477 216.738 106.591C216.738 108.705 218.433 110.418 220.524 110.418Z" fill="white"/>
    <path d="M234.894 110.418C236.985 110.418 238.68 108.705 238.68 106.591C238.68 104.477 236.985 102.763 234.894 102.763C232.803 102.763 231.108 104.477 231.108 106.591C231.108 108.705 232.803 110.418 234.894 110.418Z" fill="white"/>
    <path d="M479.777 161.692H382.708V217.065H479.777V161.692Z" fill="#A9927D"/>
    <path d="M479.777 232.485H382.708V292.063H479.777V232.485Z" fill="#E6E6E6"/>
    <path d="M617.06 161.692H500.578V249.358H617.06V161.692Z" fill="#E6E6E6"/>
    <path d="M617.06 275.19H500.578V362.857H617.06V275.19Z" fill="#A9927D"/>
    <path d="M363.156 161.692H246.673V249.358H363.156V161.692Z" fill="#E6E6E6"/>
    <path d="M463.904 60.1244L430.722 186.314L432.242 186.723L465.113 61.7143L463.904 60.1244Z" fill="#3F3D56"/>
    <path d="M559.683 318.274L526.812 443.283L528.021 444.873L561.203 318.682L559.683 318.274Z" fill="#3F3D56"/>
    <path d="M360.861 302.462H248.844C248.151 302.462 247.486 302.184 246.996 301.688C246.506 301.192 246.23 300.52 246.23 299.82C246.23 299.119 246.506 298.447 246.996 297.951C247.486 297.456 248.151 297.177 248.844 297.177H360.861C361.554 297.177 362.219 297.456 362.709 297.951C363.199 298.447 363.474 299.119 363.474 299.82C363.474 300.52 363.199 301.192 362.709 301.688C362.219 302.184 361.554 302.462 360.861 302.462Z" fill="#E6E6E6"/>
    <path d="M360.861 287.363H248.844C248.151 287.363 247.486 287.085 246.996 286.589C246.506 286.094 246.23 285.422 246.23 284.721C246.23 284.02 246.506 283.348 246.996 282.853C247.486 282.357 248.151 282.079 248.844 282.079H360.861C361.554 282.079 362.219 282.357 362.709 282.853C363.199 283.348 363.474 284.02 363.474 284.721C363.474 285.422 363.199 286.094 362.709 286.589C362.219 287.085 361.554 287.363 360.861 287.363Z" fill="#E6E6E6"/>
    <path d="M360.861 317.561H248.844C248.151 317.561 247.486 317.282 246.996 316.787C246.506 316.291 246.23 315.619 246.23 314.918C246.23 314.218 246.506 313.545 246.996 313.05C247.486 312.554 248.151 312.276 248.844 312.276H360.861C361.554 312.276 362.219 312.554 362.709 313.05C363.199 313.545 363.474 314.218 363.474 314.918C363.474 315.619 363.199 316.291 362.709 316.787C362.219 317.282 361.554 317.561 360.861 317.561Z" fill="#E6E6E6"/>
    <path d="M360.861 332.659H248.844C248.151 332.659 247.486 332.381 246.996 331.885C246.506 331.39 246.23 330.718 246.23 330.017C246.23 329.316 246.506 328.644 246.996 328.149C247.486 327.653 248.151 327.375 248.844 327.375H360.861C361.554 327.375 362.219 327.653 362.709 328.149C363.199 328.644 363.474 329.316 363.474 330.017C363.474 330.718 363.199 331.39 362.709 331.885C362.219 332.381 361.554 332.659 360.861 332.659Z" fill="#E6E6E6"/>
    <path d="M360.861 347.758H248.844C248.151 347.758 247.486 347.479 246.996 346.984C246.506 346.488 246.23 345.816 246.23 345.116C246.23 344.415 246.506 343.743 246.996 343.247C247.486 342.752 248.151 342.473 248.844 342.473H360.861C361.554 342.473 362.219 342.752 362.709 343.247C363.199 343.743 363.474 344.415 363.474 345.116C363.474 345.816 363.199 346.488 362.709 346.984C362.219 347.479 361.554 347.758 360.861 347.758Z" fill="#E6E6E6"/>
    <path d="M360.861 362.857H248.844C248.151 362.857 247.486 362.578 246.996 362.083C246.506 361.587 246.23 360.915 246.23 360.214C246.23 359.514 246.506 358.841 246.996 358.346C247.486 357.85 248.151 357.572 248.844 357.572H360.861C361.554 357.572 362.219 357.85 362.709 358.346C363.199 358.841 363.474 359.514 363.474 360.214C363.474 360.915 363.199 361.587 362.709 362.083C362.219 362.578 361.554 362.857 360.861 362.857Z" fill="#E6E6E6"/>
    <path d="M477.543 317.561H384.942C384.249 317.561 383.584 317.282 383.094 316.787C382.604 316.291 382.329 315.619 382.329 314.918C382.329 314.218 382.604 313.545 383.094 313.05C383.584 312.554 384.249 312.276 384.942 312.276H477.543C478.236 312.276 478.901 312.554 479.391 313.05C479.881 313.545 480.156 314.218 480.156 314.918C480.156 315.619 479.881 316.291 479.391 316.787C478.901 317.282 478.236 317.561 477.543 317.561Z" fill="#E6E6E6"/>
    <path d="M477.543 332.659H384.942C384.249 332.659 383.584 332.381 383.094 331.885C382.604 331.39 382.329 330.718 382.329 330.017C382.329 329.316 382.604 328.644 383.094 328.149C383.584 327.653 384.249 327.375 384.942 327.375H477.543C478.236 327.375 478.901 327.653 479.391 328.149C479.881 328.644 480.156 329.316 480.156 330.017C480.156 330.718 479.881 331.39 479.391 331.885C478.901 332.381 478.236 332.659 477.543 332.659Z" fill="#E6E6E6"/>
    <path d="M477.543 347.758H384.942C384.249 347.758 383.584 347.479 383.094 346.984C382.604 346.488 382.329 345.816 382.329 345.116C382.329 344.415 382.604 343.743 383.094 343.247C383.584 342.752 384.249 342.473 384.942 342.473H477.543C478.236 342.473 478.901 342.752 479.391 343.247C479.881 343.743 480.156 344.415 480.156 345.116C480.156 345.816 479.881 346.488 479.391 346.984C478.901 347.479 478.236 347.758 477.543 347.758Z" fill="#E6E6E6"/>
    <path d="M477.543 362.857H384.942C384.249 362.857 383.584 362.578 383.094 362.083C382.604 361.587 382.329 360.915 382.329 360.214C382.329 359.514 382.604 358.841 383.094 358.346C383.584 357.85 384.249 357.572 384.942 357.572H477.543C478.236 357.572 478.901 357.85 479.391 358.346C479.881 358.841 480.156 359.514 480.156 360.214C480.156 360.915 479.881 361.587 479.391 362.083C478.901 362.578 478.236 362.857 477.543 362.857Z" fill="#E6E6E6"/>
    <path d="M466.605 67.944C485.165 67.944 500.21 52.7342 500.21 33.972C500.21 15.2098 485.165 0 466.605 0C448.045 0 433 15.2098 433 33.972C433 52.7342 448.045 67.944 466.605 67.944Z" fill="#F0F0F0"/>
    <path d="M466.156 8.04935e-07C464.429 0.000208741 462.704 0.13143 460.996 0.392563C460.122 0.520902 459.271 0.686952 458.427 0.890822C452.227 2.33545 446.547 5.493 442.019 10.0112C437.491 14.5293 434.294 20.2304 432.785 26.4784C431.275 32.7263 431.513 39.2753 433.471 45.3948C435.428 51.5143 439.03 56.9635 443.872 61.1345C444.447 61.6252 445.03 62.1008 445.635 62.5538C449.994 65.8398 455.064 68.0323 460.425 68.9508C465.787 69.8693 471.288 69.4876 476.475 67.837C481.662 66.1864 486.388 63.3142 490.262 59.4566C494.137 55.5991 497.05 50.8666 498.762 45.6485C500.474 40.4305 500.935 34.8761 500.109 29.4424C499.282 24.0088 497.191 18.8512 494.008 14.3942C490.824 9.93713 486.639 6.30805 481.797 3.80559C476.955 1.30313 471.594 -0.00118287 466.156 8.04935e-07ZM466.156 67.944C459.169 67.9516 452.364 65.6946 446.74 61.5044C446.128 61.0514 445.538 60.5834 444.963 60.0851C440.244 56.0615 436.744 50.775 434.862 44.8319C432.98 38.8888 432.793 32.5298 434.322 26.4842C435.852 20.4386 439.036 14.9512 443.509 10.6514C447.983 6.35166 453.565 3.41359 459.615 2.17421C460.451 2.00057 461.287 1.86468 462.139 1.75899C463.471 1.59213 464.813 1.50893 466.156 1.50987C474.871 1.50987 483.228 5.00951 489.39 11.2389C495.553 17.4683 499.014 25.9172 499.014 34.7269C499.014 43.5366 495.553 51.9855 489.39 58.2149C483.228 64.4443 474.871 67.944 466.156 67.944Z" fill="#3F3D56"/>
    <path d="M449.727 27.9325L482.585 27.9325C483.823 27.9325 484.826 26.9185 484.826 25.6677C484.826 24.4169 483.823 23.4029 482.585 23.4029L449.727 23.4029C448.49 23.4029 447.487 24.4169 447.487 25.6677C447.487 26.9185 448.49 27.9325 449.727 27.9325Z" fill="#6C63FF"/>
    <path d="M449.727 36.9917L482.585 36.9917C483.823 36.9917 484.826 35.9777 484.826 34.7269C484.826 33.4761 483.823 32.4621 482.585 32.4621L449.727 32.4621C448.49 32.4621 447.487 33.4761 447.487 34.7269C447.487 35.9777 448.49 36.9917 449.727 36.9917Z" fill="#6C63FF"/>
    <path d="M449.727 46.0509L482.585 46.0509C483.823 46.0509 484.826 45.0369 484.826 43.7861C484.826 42.5353 483.823 41.5213 482.585 41.5213L449.727 41.5213C448.49 41.5213 447.487 42.5353 447.487 43.7861C447.487 45.0369 448.49 46.0509 449.727 46.0509Z" fill="#6C63FF"/>
    <path d="M522.911 508.07C541.471 508.07 556.516 492.86 556.516 474.098C556.516 455.336 541.471 440.126 522.911 440.126C504.352 440.126 489.306 455.336 489.306 474.098C489.306 492.86 504.352 508.07 522.911 508.07Z" fill="#F0F0F0"/>
    <path d="M522.911 439.371C521.184 439.371 519.459 439.502 517.751 439.764C516.877 439.892 516.026 440.058 515.182 440.262C508.983 441.706 503.302 444.864 498.774 449.382C494.246 453.9 491.049 459.601 489.54 465.849C488.03 472.097 488.268 478.646 490.226 484.766C492.184 490.885 495.785 496.335 500.628 500.505C501.203 500.996 501.785 501.472 502.39 501.925C506.75 505.211 511.819 507.403 517.181 508.322C522.542 509.24 528.043 508.859 533.23 507.208C538.418 505.557 543.143 502.685 547.018 498.828C550.892 494.97 553.805 490.238 555.517 485.02C557.229 479.802 557.691 474.247 556.864 468.813C556.038 463.38 553.946 458.222 550.763 453.765C547.579 449.308 543.394 445.679 538.552 443.177C533.71 440.674 528.349 439.37 522.911 439.371ZM522.911 507.315C515.925 507.323 509.12 505.066 503.495 500.875C502.883 500.422 502.293 499.954 501.718 499.456C497 495.433 493.499 490.146 491.617 484.203C489.735 478.26 489.548 471.901 491.077 465.855C492.607 459.81 495.791 454.322 500.265 450.022C504.738 445.723 510.32 442.785 516.37 441.545C517.206 441.372 518.042 441.236 518.894 441.13C520.227 440.963 521.568 440.88 522.911 440.881C531.626 440.881 539.983 444.381 546.146 450.61C552.308 456.839 555.77 465.288 555.77 474.098C555.77 482.908 552.308 491.357 546.146 497.586C539.983 503.815 531.626 507.315 522.911 507.315Z" fill="#3F3D56"/>
    <path d="M506.482 467.304H539.34C540.578 467.304 541.581 466.29 541.581 465.039C541.581 463.788 540.578 462.774 539.34 462.774H506.482C505.245 462.774 504.242 463.788 504.242 465.039C504.242 466.29 505.245 467.304 506.482 467.304Z" fill="#6C63FF"/>
    <path d="M506.482 476.363H539.34C540.578 476.363 541.581 475.349 541.581 474.098C541.581 472.847 540.578 471.833 539.34 471.833H506.482C505.245 471.833 504.242 472.847 504.242 474.098C504.242 475.349 505.245 476.363 506.482 476.363Z" fill="#6C63FF"/>
    <path d="M506.482 485.422H539.34C540.578 485.422 541.581 484.408 541.581 483.157C541.581 481.906 540.578 480.892 539.34 480.892H506.482C505.245 480.892 504.242 481.906 504.242 483.157C504.242 484.408 505.245 485.422 506.482 485.422Z" fill="#6C63FF"/>
    <path d="M259.494 552H0.889153C0.653775 551.999 0.428276 551.904 0.262079 551.736C0.0958823 551.567 0.00254822 551.339 0.00254822 551.101C0.00254822 550.863 0.0958823 550.635 0.262079 550.466C0.428276 550.298 0.653775 550.203 0.889153 550.202H259.494C259.729 550.203 259.955 550.298 260.121 550.466C260.287 550.635 260.38 550.863 260.38 551.101C260.38 551.339 260.287 551.567 260.121 551.736C259.955 551.904 259.729 551.999 259.494 552Z" fill="#CACACA"/>
  </g>
</svg>